<mxfile host="65bd71144e">
    <diagram name="Page-1" id="2YBvvXClWsGukQMizWep">
        <mxGraphModel dx="379" dy="259" grid="1" gridSize="10" guides="1" tooltips="1" connect="1" arrows="0" fold="1" page="1" pageScale="1" pageWidth="850" pageHeight="1100" math="0" shadow="0">
            <root>
                <mxCell id="0"/>
                <mxCell id="1" parent="0"/>
                <mxCell id="7" value="request logout" style="html=1;verticalAlign=bottom;startArrow=oval;endArrow=block;startSize=8;edgeStyle=elbowEdgeStyle;elbow=vertical;curved=0;rounded=0;" edge="1" parent="1" target="8">
                    <mxGeometry x="0.0208" relative="1" as="geometry">
                        <mxPoint x="107" y="540" as="sourcePoint"/>
                        <mxPoint x="410" y="540" as="targetPoint"/>
                        <Array as="points"/>
                        <mxPoint as="offset"/>
                    </mxGeometry>
                </mxCell>
                <mxCell id="ti7OjyQPhwodmMIkzD1--45" value="response BAD REQUEST" style="html=1;verticalAlign=bottom;endArrow=open;dashed=1;endSize=8;edgeStyle=elbowEdgeStyle;elbow=vertical;curved=0;rounded=0;" parent="1" edge="1">
                    <mxGeometry x="0.1478" relative="1" as="geometry">
                        <mxPoint x="590.95" y="372.55" as="sourcePoint"/>
                        <mxPoint x="427.9954545454545" y="372.55" as="targetPoint"/>
                        <mxPoint as="offset"/>
                        <Array as="points">
                            <mxPoint x="600.95" y="372.55"/>
                        </Array>
                    </mxGeometry>
                </mxCell>
                <mxCell id="ti7OjyQPhwodmMIkzD1--24" value="return select query result" style="html=1;verticalAlign=bottom;endArrow=open;dashed=1;endSize=8;edgeStyle=elbowEdgeStyle;elbow=vertical;curved=0;rounded=0;" parent="1" edge="1">
                    <mxGeometry x="-0.0942" relative="1" as="geometry">
                        <mxPoint x="783" y="290.14137931034486" as="sourcePoint"/>
                        <mxPoint x="602" y="290" as="targetPoint"/>
                        <mxPoint as="offset"/>
                    </mxGeometry>
                </mxCell>
                <mxCell id="ti7OjyQPhwodmMIkzD1--9" value="request login page" style="html=1;verticalAlign=bottom;startArrow=oval;endArrow=block;startSize=8;edgeStyle=elbowEdgeStyle;elbow=vertical;curved=0;rounded=0;" parent="1" edge="1">
                    <mxGeometry x="0.0116" relative="1" as="geometry">
                        <mxPoint x="247.18253968253975" y="236.29111111111115" as="sourcePoint"/>
                        <mxPoint x="418" y="236.29111111111115" as="targetPoint"/>
                        <Array as="points"/>
                        <mxPoint as="offset"/>
                    </mxGeometry>
                </mxCell>
                <mxCell id="aM9ryv3xv72pqoxQDRHE-3" value="access to login page" style="html=1;verticalAlign=bottom;startArrow=oval;endArrow=block;startSize=8;edgeStyle=elbowEdgeStyle;elbow=vertical;curved=0;rounded=0;" parent="1" edge="1">
                    <mxGeometry x="0.0208" relative="1" as="geometry">
                        <mxPoint x="108" y="236" as="sourcePoint"/>
                        <mxPoint x="240" y="236.31578947368428" as="targetPoint"/>
                        <Array as="points"/>
                        <mxPoint as="offset"/>
                    </mxGeometry>
                </mxCell>
                <mxCell id="aM9ryv3xv72pqoxQDRHE-1" value="FrontEnd" style="shape=umlLifeline;perimeter=lifelinePerimeter;whiteSpace=wrap;html=1;container=0;dropTarget=0;collapsible=0;recursiveResize=0;outlineConnect=0;portConstraint=eastwest;newEdgeStyle={&quot;edgeStyle&quot;:&quot;elbowEdgeStyle&quot;,&quot;elbow&quot;:&quot;vertical&quot;,&quot;curved&quot;:0,&quot;rounded&quot;:0};" parent="1" vertex="1">
                    <mxGeometry x="373" y="156" width="100" height="454" as="geometry"/>
                </mxCell>
                <mxCell id="aM9ryv3xv72pqoxQDRHE-2" value="" style="html=1;points=[];perimeter=orthogonalPerimeter;outlineConnect=0;targetShapes=umlLifeline;portConstraint=eastwest;newEdgeStyle={&quot;edgeStyle&quot;:&quot;elbowEdgeStyle&quot;,&quot;elbow&quot;:&quot;vertical&quot;,&quot;curved&quot;:0,&quot;rounded&quot;:0};" parent="aM9ryv3xv72pqoxQDRHE-1" vertex="1">
                    <mxGeometry x="45" y="69" width="10" height="51" as="geometry"/>
                </mxCell>
                <mxCell id="ti7OjyQPhwodmMIkzD1--10" value="" style="html=1;points=[];perimeter=orthogonalPerimeter;outlineConnect=0;targetShapes=umlLifeline;portConstraint=eastwest;newEdgeStyle={&quot;edgeStyle&quot;:&quot;elbowEdgeStyle&quot;,&quot;elbow&quot;:&quot;vertical&quot;,&quot;curved&quot;:0,&quot;rounded&quot;:0};" parent="aM9ryv3xv72pqoxQDRHE-1" vertex="1">
                    <mxGeometry x="45" y="180" width="10" height="53" as="geometry"/>
                </mxCell>
                <mxCell id="aM9ryv3xv72pqoxQDRHE-5" value="BackEnd" style="shape=umlLifeline;perimeter=lifelinePerimeter;whiteSpace=wrap;html=1;container=0;dropTarget=0;collapsible=0;recursiveResize=0;outlineConnect=0;portConstraint=eastwest;newEdgeStyle={&quot;edgeStyle&quot;:&quot;elbowEdgeStyle&quot;,&quot;elbow&quot;:&quot;vertical&quot;,&quot;curved&quot;:0,&quot;rounded&quot;:0};" parent="1" vertex="1">
                    <mxGeometry x="549" y="156" width="100" height="454" as="geometry"/>
                </mxCell>
                <mxCell id="aM9ryv3xv72pqoxQDRHE-6" value="" style="html=1;points=[];perimeter=orthogonalPerimeter;outlineConnect=0;targetShapes=umlLifeline;portConstraint=eastwest;newEdgeStyle={&quot;edgeStyle&quot;:&quot;elbowEdgeStyle&quot;,&quot;elbow&quot;:&quot;vertical&quot;,&quot;curved&quot;:0,&quot;rounded&quot;:0};" parent="aM9ryv3xv72pqoxQDRHE-5" vertex="1">
                    <mxGeometry x="45" y="70" width="10" height="100" as="geometry"/>
                </mxCell>
                <mxCell id="aM9ryv3xv72pqoxQDRHE-9" value="request login api" style="html=1;verticalAlign=bottom;endArrow=none;edgeStyle=elbowEdgeStyle;elbow=vertical;curved=0;rounded=0;startArrow=block;startFill=1;endFill=0;" parent="1" edge="1">
                    <mxGeometry x="0.0019" relative="1" as="geometry">
                        <mxPoint x="594" y="236" as="sourcePoint"/>
                        <Array as="points">
                            <mxPoint x="576" y="236"/>
                            <mxPoint x="736" y="136"/>
                        </Array>
                        <mxPoint x="427.9999999999999" y="236" as="targetPoint"/>
                        <mxPoint as="offset"/>
                    </mxGeometry>
                </mxCell>
                <mxCell id="ti7OjyQPhwodmMIkzD1--1" value="" style="shape=umlLifeline;perimeter=lifelinePerimeter;whiteSpace=wrap;html=1;container=1;dropTarget=0;collapsible=0;recursiveResize=0;outlineConnect=0;portConstraint=eastwest;newEdgeStyle={&quot;edgeStyle&quot;:&quot;elbowEdgeStyle&quot;,&quot;elbow&quot;:&quot;vertical&quot;,&quot;curved&quot;:0,&quot;rounded&quot;:0};participant=umlActor;" parent="1" vertex="1">
                    <mxGeometry x="97" y="156" width="20" height="454" as="geometry"/>
                </mxCell>
                <mxCell id="ti7OjyQPhwodmMIkzD1--8" value="" style="html=1;points=[];perimeter=orthogonalPerimeter;outlineConnect=0;targetShapes=umlLifeline;portConstraint=eastwest;newEdgeStyle={&quot;edgeStyle&quot;:&quot;elbowEdgeStyle&quot;,&quot;elbow&quot;:&quot;vertical&quot;,&quot;curved&quot;:0,&quot;rounded&quot;:0};" parent="ti7OjyQPhwodmMIkzD1--1" vertex="1">
                    <mxGeometry x="5" y="63" width="10" height="380" as="geometry"/>
                </mxCell>
                <mxCell id="ti7OjyQPhwodmMIkzD1--3" value="&lt;font style=&quot;font-size: 22px;&quot;&gt;로그인 / 로그아웃&lt;br&gt;login/ logout API&lt;br&gt;&lt;/font&gt;" style="text;html=1;strokeColor=none;fillColor=none;align=center;verticalAlign=middle;whiteSpace=wrap;rounded=0;" parent="1" vertex="1">
                    <mxGeometry x="11" y="35" width="169" height="75" as="geometry"/>
                </mxCell>
                <mxCell id="ti7OjyQPhwodmMIkzD1--4" value="&lt;p style=&quot;margin:0px;margin-top:4px;text-align:center;text-decoration:underline;&quot;&gt;&lt;b&gt;user:string&lt;/b&gt;&lt;/p&gt;&lt;p style=&quot;margin:0px;margin-left:8px;&quot;&gt;&lt;br&gt;username = admin1&lt;br&gt;password = admin123!@&lt;/p&gt;" style="verticalAlign=top;align=left;overflow=fill;fontSize=12;fontFamily=Helvetica;html=1;whiteSpace=wrap;" parent="1" vertex="1">
                    <mxGeometry x="200" y="20" width="160" height="100" as="geometry"/>
                </mxCell>
                <mxCell id="ti7OjyQPhwodmMIkzD1--5" value="WebBrowser" style="shape=umlLifeline;perimeter=lifelinePerimeter;whiteSpace=wrap;html=1;container=1;dropTarget=0;collapsible=0;recursiveResize=0;outlineConnect=0;portConstraint=eastwest;newEdgeStyle={&quot;edgeStyle&quot;:&quot;elbowEdgeStyle&quot;,&quot;elbow&quot;:&quot;vertical&quot;,&quot;curved&quot;:0,&quot;rounded&quot;:0};" parent="1" vertex="1">
                    <mxGeometry x="197" y="156" width="100" height="454" as="geometry"/>
                </mxCell>
                <mxCell id="ti7OjyQPhwodmMIkzD1--7" value="" style="html=1;points=[];perimeter=orthogonalPerimeter;outlineConnect=0;targetShapes=umlLifeline;portConstraint=eastwest;newEdgeStyle={&quot;edgeStyle&quot;:&quot;elbowEdgeStyle&quot;,&quot;elbow&quot;:&quot;vertical&quot;,&quot;curved&quot;:0,&quot;rounded&quot;:0};" parent="ti7OjyQPhwodmMIkzD1--5" vertex="1">
                    <mxGeometry x="45" y="68" width="10" height="52" as="geometry"/>
                </mxCell>
                <mxCell id="ti7OjyQPhwodmMIkzD1--6" value="DB" style="shape=umlLifeline;perimeter=lifelinePerimeter;whiteSpace=wrap;html=1;container=1;dropTarget=0;collapsible=0;recursiveResize=0;outlineConnect=0;portConstraint=eastwest;newEdgeStyle={&quot;edgeStyle&quot;:&quot;elbowEdgeStyle&quot;,&quot;elbow&quot;:&quot;vertical&quot;,&quot;curved&quot;:0,&quot;rounded&quot;:0};" parent="1" vertex="1">
                    <mxGeometry x="739" y="156" width="100" height="454" as="geometry"/>
                </mxCell>
                <mxCell id="ti7OjyQPhwodmMIkzD1--38" value="" style="html=1;points=[];perimeter=orthogonalPerimeter;outlineConnect=0;targetShapes=umlLifeline;portConstraint=eastwest;newEdgeStyle={&quot;edgeStyle&quot;:&quot;elbowEdgeStyle&quot;,&quot;elbow&quot;:&quot;vertical&quot;,&quot;curved&quot;:0,&quot;rounded&quot;:0};" parent="ti7OjyQPhwodmMIkzD1--6" vertex="1">
                    <mxGeometry x="45" y="74" width="10" height="81" as="geometry"/>
                </mxCell>
                <mxCell id="ti7OjyQPhwodmMIkzD1--31" value="1. check username existence&lt;br&gt;2. verify password" style="html=1;verticalAlign=bottom;endArrow=none;edgeStyle=elbowEdgeStyle;elbow=vertical;curved=0;rounded=0;startArrow=block;startFill=1;endFill=0;" parent="1" edge="1">
                    <mxGeometry x="-0.0273" y="-6" relative="1" as="geometry">
                        <mxPoint x="784" y="247.9999999999999" as="sourcePoint"/>
                        <Array as="points">
                            <mxPoint x="778" y="248"/>
                            <mxPoint x="873" y="146"/>
                        </Array>
                        <mxPoint x="603" y="246" as="targetPoint"/>
                        <mxPoint as="offset"/>
                    </mxGeometry>
                </mxCell>
                <mxCell id="ti7OjyQPhwodmMIkzD1--41" value="not verified" style="shape=umlFrame;whiteSpace=wrap;html=1;pointerEvents=0;fillColor=#f8cecc;strokeColor=#b85450;width=77;height=32;" parent="1" vertex="1">
                    <mxGeometry x="16" y="304" width="720" height="90" as="geometry"/>
                </mxCell>
                <mxCell id="ti7OjyQPhwodmMIkzD1--42" value="check verification" style="html=1;align=left;spacingLeft=2;endArrow=block;rounded=0;edgeStyle=orthogonalEdgeStyle;curved=0;rounded=0;startArrow=none;" parent="1" edge="1">
                    <mxGeometry y="10" relative="1" as="geometry">
                        <mxPoint x="604" y="313" as="sourcePoint"/>
                        <Array as="points">
                            <mxPoint x="626" y="313"/>
                            <mxPoint x="626" y="373"/>
                        </Array>
                        <mxPoint x="604" y="373" as="targetPoint"/>
                        <mxPoint as="offset"/>
                    </mxGeometry>
                </mxCell>
                <mxCell id="ti7OjyQPhwodmMIkzD1--47" value="show incorrect password&amp;nbsp;error" style="html=1;verticalAlign=bottom;endArrow=open;dashed=1;endSize=8;edgeStyle=elbowEdgeStyle;elbow=vertical;curved=0;rounded=0;" parent="1" target="ti7OjyQPhwodmMIkzD1--8" edge="1">
                    <mxGeometry x="0.1478" relative="1" as="geometry">
                        <mxPoint x="423" y="376" as="sourcePoint"/>
                        <mxPoint x="166" y="370" as="targetPoint"/>
                        <mxPoint as="offset"/>
                        <Array as="points">
                            <mxPoint x="346" y="376"/>
                            <mxPoint x="426.95" y="479.63"/>
                        </Array>
                    </mxGeometry>
                </mxCell>
                <mxCell id="ti7OjyQPhwodmMIkzD1--57" value="" style="html=1;points=[];perimeter=orthogonalPerimeter;outlineConnect=0;targetShapes=umlLifeline;portConstraint=eastwest;newEdgeStyle={&quot;edgeStyle&quot;:&quot;elbowEdgeStyle&quot;,&quot;elbow&quot;:&quot;vertical&quot;,&quot;curved&quot;:0,&quot;rounded&quot;:0};" parent="1" vertex="1">
                    <mxGeometry x="594" y="437" width="10" height="38" as="geometry"/>
                </mxCell>
                <mxCell id="ti7OjyQPhwodmMIkzD1--59" value="redirect to main page" style="html=1;verticalAlign=bottom;endArrow=open;dashed=1;endSize=8;edgeStyle=elbowEdgeStyle;elbow=vertical;curved=0;rounded=0;" parent="1" edge="1">
                    <mxGeometry x="-0.0769" relative="1" as="geometry">
                        <mxPoint x="415" y="456.96999999999997" as="sourcePoint"/>
                        <mxPoint x="112" y="456.96999999999997" as="targetPoint"/>
                        <mxPoint as="offset"/>
                        <Array as="points">
                            <mxPoint x="325" y="456.96999999999997"/>
                        </Array>
                    </mxGeometry>
                </mxCell>
                <mxCell id="ti7OjyQPhwodmMIkzD1--40" value="" style="html=1;points=[];perimeter=orthogonalPerimeter;outlineConnect=0;targetShapes=umlLifeline;portConstraint=eastwest;newEdgeStyle={&quot;edgeStyle&quot;:&quot;elbowEdgeStyle&quot;,&quot;elbow&quot;:&quot;vertical&quot;,&quot;curved&quot;:0,&quot;rounded&quot;:0};" parent="1" vertex="1">
                    <mxGeometry x="594" y="348" width="10" height="40" as="geometry"/>
                </mxCell>
                <mxCell id="6" value="" style="html=1;points=[];perimeter=orthogonalPerimeter;outlineConnect=0;targetShapes=umlLifeline;portConstraint=eastwest;newEdgeStyle={&quot;edgeStyle&quot;:&quot;elbowEdgeStyle&quot;,&quot;elbow&quot;:&quot;vertical&quot;,&quot;curved&quot;:0,&quot;rounded&quot;:0};" vertex="1" parent="1">
                    <mxGeometry x="418" y="437" width="10" height="38" as="geometry"/>
                </mxCell>
                <mxCell id="ti7OjyQPhwodmMIkzD1--58" value="response &lt;br&gt;1. login message with userData&lt;br&gt;2. cookie" style="html=1;verticalAlign=bottom;endArrow=open;dashed=1;endSize=8;edgeStyle=elbowEdgeStyle;elbow=vertical;curved=0;rounded=0;" parent="1" edge="1">
                    <mxGeometry x="0.0817" relative="1" as="geometry">
                        <mxPoint x="596" y="456" as="sourcePoint"/>
                        <mxPoint x="428" y="457.04999999999995" as="targetPoint"/>
                        <mxPoint as="offset"/>
                    </mxGeometry>
                </mxCell>
                <mxCell id="8" value="" style="html=1;points=[];perimeter=orthogonalPerimeter;outlineConnect=0;targetShapes=umlLifeline;portConstraint=eastwest;newEdgeStyle={&quot;edgeStyle&quot;:&quot;elbowEdgeStyle&quot;,&quot;elbow&quot;:&quot;vertical&quot;,&quot;curved&quot;:0,&quot;rounded&quot;:0};" vertex="1" parent="1">
                    <mxGeometry x="418" y="520" width="10" height="80" as="geometry"/>
                </mxCell>
                <mxCell id="9" value="" style="html=1;points=[];perimeter=orthogonalPerimeter;outlineConnect=0;targetShapes=umlLifeline;portConstraint=eastwest;newEdgeStyle={&quot;edgeStyle&quot;:&quot;elbowEdgeStyle&quot;,&quot;elbow&quot;:&quot;vertical&quot;,&quot;curved&quot;:0,&quot;rounded&quot;:0};" vertex="1" parent="1">
                    <mxGeometry x="594" y="520" width="10" height="80" as="geometry"/>
                </mxCell>
                <mxCell id="10" value="request logout api" style="html=1;verticalAlign=bottom;endArrow=none;edgeStyle=elbowEdgeStyle;elbow=vertical;curved=0;rounded=0;startArrow=block;startFill=1;endFill=0;" edge="1" parent="1">
                    <mxGeometry x="0.0019" relative="1" as="geometry">
                        <mxPoint x="594" y="538.38" as="sourcePoint"/>
                        <Array as="points">
                            <mxPoint x="576" y="538.38"/>
                            <mxPoint x="736" y="438.38"/>
                        </Array>
                        <mxPoint x="428" y="538.38" as="targetPoint"/>
                        <mxPoint as="offset"/>
                    </mxGeometry>
                </mxCell>
                <mxCell id="12" value="response&lt;br&gt;1. logout message&lt;br&gt;2. clear cookie" style="html=1;verticalAlign=bottom;endArrow=open;dashed=1;endSize=8;edgeStyle=elbowEdgeStyle;elbow=vertical;curved=0;rounded=0;" edge="1" parent="1">
                    <mxGeometry x="0.0817" relative="1" as="geometry">
                        <mxPoint x="593" y="586" as="sourcePoint"/>
                        <mxPoint x="425" y="587.05" as="targetPoint"/>
                        <mxPoint as="offset"/>
                    </mxGeometry>
                </mxCell>
                <mxCell id="13" value="redirect to main page" style="html=1;verticalAlign=bottom;endArrow=open;dashed=1;endSize=8;edgeStyle=elbowEdgeStyle;elbow=vertical;curved=0;rounded=0;" edge="1" parent="1">
                    <mxGeometry x="-0.0769" relative="1" as="geometry">
                        <mxPoint x="416" y="588" as="sourcePoint"/>
                        <mxPoint x="113" y="588" as="targetPoint"/>
                        <mxPoint as="offset"/>
                        <Array as="points">
                            <mxPoint x="326" y="588"/>
                        </Array>
                    </mxGeometry>
                </mxCell>
            </root>
        </mxGraphModel>
    </diagram>
</mxfile>